<?xml version="1.0" encoding="utf-8"?>
<!-- Generator: Adobe Illustrator 22.1.0, SVG Export Plug-In . SVG Version: 6.00 Build 0)  -->
<svg version="1.1" id="Layer_1" xmlns="http://www.w3.org/2000/svg" xmlns:xlink="http://www.w3.org/1999/xlink" x="0px" y="0px"
	 viewBox="0 0 194.5 54.3" style="enable-background:new 0 0 194.5 54.3;" xml:space="preserve">
<style type="text/css">
	.st0{fill:#2D2A26;}
	.st1{fill:#B1B1B1;}
	.st2{fill:#E92089;}
</style>
<title>Artboard 1</title>
<g>
	<path class="st0" d="M62.7,44.5l0.7-7.8c3.9,1.9,8.3,3,12.7,3.1c4.2,0,6.5-1.1,6.5-3.8c0-2.2-1.8-3.3-6.4-4.5l-4.2-1.1
		c-5.4-1.5-9.4-4.9-9.4-11.8c0-6.6,3.7-12.1,16-12.1c4.5-0.1,9,0.8,13.2,2.5l-0.8,7.6c-3.7-1.3-7.7-2-11.6-2.1
		c-4.7,0-6.3,1.4-6.3,3.4s1.2,3.4,4.9,4.3l3.7,0.9c8.5,2.1,11.4,6.8,11.4,12.1c0,7-4.8,12.6-16.6,12.6C71.5,48,66.8,46.8,62.7,44.5"
		/>
	<path class="st0" d="M142.9,33.1h-3.9v13.8H129V7.4h17.5c8.8,0,13.4,6.4,13.5,12.4c0.1,6-2.9,9.4-7.9,11.4l9,15.9h-11L142.9,33.1z
		 M138.9,25.6h5.9c2.8,0.2,5.2-1.8,5.4-4.6c0-0.2,0-0.4,0-0.6c0.2-2.8-1.9-5.2-4.7-5.4c-0.2,0-0.4,0-0.7,0h-5.9V25.6z"/>
	<path class="st0" d="M163.4,27.1c0-13,9.6-20.7,20.2-20.7c4.4,0,7.9,0.6,10.9,2.1l-0.8,7.9c-2.5-1.2-5.3-1.8-8.1-1.7
		c-6.3,0-11.6,4.3-11.6,12.4s5.3,12.4,11.6,12.4c3,0,6-0.8,8.7-2.2l-1,8.8c-3.1,1.2-6.4,1.8-9.7,1.7C173,47.8,163.4,40.2,163.4,27.1
		"/>
	<path class="st1" d="M2.8,4.1c3,3.2,6.1,6.3,9.1,9.5c6.7,7.4,6.7,19.8,0,27.2c-3,3.1-6.1,6.2-9.1,9.5C1.5,46.7,0.6,43.1,0,39.4
		c2.9-4.3,6.1-8.3,9.6-12.2C6.1,23.3,2.9,19.3,0,15C0.6,11.3,1.5,7.6,2.8,4.1"/>
	<path class="st2" d="M51.5,50.2c-3-3.2-6-6.3-9.1-9.4c-6.7-7.4-6.7-19.8,0-27.2c3-3.1,6.1-6.3,9.1-9.5c1.3,3.5,2.2,7.2,2.8,10.9
		c-2.9,4.3-6.1,8.3-9.6,12.2c3.5,3.8,6.7,7.9,9.6,12.2C53.7,43,52.8,46.7,51.5,50.2"/>
	<path class="st2" d="M4.1,51.5c3.2-3,6.3-6,9.4-9.1c7.4-6.7,19.8-6.7,27.2,0c3.1,3.1,6.3,6.1,9.5,9.1c-3.5,1.3-7.2,2.2-10.9,2.8
		c-4.3-2.9-8.3-6.1-12.2-9.6c-3.8,3.5-7.9,6.7-12.2,9.6C11.3,53.7,7.6,52.8,4.1,51.5"/>
	<path class="st1" d="M50.2,2.8c-3.2,3-6.3,6.1-9.5,9.1c-7.4,6.7-19.9,6.7-27.2,0c-3.1-3.1-6.3-6.1-9.5-9.1C7.6,1.5,11.3,0.6,15,0
		c4.3,2.9,8.3,6.1,12.2,9.6C31,6.1,35.1,2.9,39.4,0C43.1,0.6,46.7,1.5,50.2,2.8"/>
	<polygon class="st0" points="106.1,39.1 124.3,39.1 124.3,46.9 96.2,46.9 96.2,7.4 124.3,7.4 124.3,15.2 106.1,15.2 106.1,23.4 
		122.3,23.4 122.3,31.1 106.1,31.1 	"/>
</g>
</svg>
